<svg width="868" height="501" viewBox="0 0 868 501" fill="none" xmlns="http://www.w3.org/2000/svg">
<g id="popcorn">
<path id="Vector" d="M14.9541 192.026H300.152C303.865 192.026 307.426 193.501 310.051 196.127C312.677 198.752 314.152 202.313 314.152 206.026V228.264H0.954102V206.026C0.954104 202.313 2.4291 198.752 5.0546 196.127C7.68011 193.501 11.2411 192.026 14.9541 192.026Z" fill="#3F3D56"/>
<path id="Vector_2" d="M294.739 189.438C293.329 189.444 291.931 189.682 290.599 190.143C290.142 188.305 289.029 186.698 287.468 185.625C285.907 184.552 284.008 184.087 282.128 184.319C280.248 184.551 278.519 185.463 277.265 186.883C276.012 188.303 275.322 190.132 275.326 192.026C275.326 192.065 275.335 192.101 275.336 192.139C274.365 192.231 273.408 192.43 272.48 192.731C272.217 191.686 271.74 190.707 271.08 189.855C270.419 189.004 269.589 188.299 268.642 187.785C271.13 186.409 273.097 184.255 274.243 181.654C280.576 181.551 285.679 176.973 285.679 171.319C285.679 165.601 280.464 160.965 274.031 160.965C272.622 160.972 271.224 161.21 269.892 161.67C269.653 160.652 269.21 159.693 268.59 158.851C267.971 158.009 267.187 157.301 266.286 156.77C265.385 156.239 264.386 155.897 263.348 155.763C262.311 155.629 261.258 155.706 260.252 155.991C259.246 156.275 258.307 156.761 257.494 157.418C256.68 158.075 256.009 158.89 255.519 159.814C255.029 160.737 254.732 161.751 254.644 162.793C254.557 163.835 254.682 164.884 255.011 165.876C254.702 166.092 254.413 166.334 254.124 166.574C252.66 165.314 250.758 164.681 248.831 164.812C247.835 161.954 245.866 159.537 243.267 157.984C240.669 156.432 237.607 155.844 234.618 156.323C231.629 156.801 228.904 158.316 226.92 160.602C224.936 162.888 223.82 165.8 223.767 168.826C222.728 168.908 221.703 169.113 220.712 169.435C220.601 168.997 220.451 168.57 220.266 168.158C221.288 167.256 222.109 166.15 222.676 164.911C223.243 163.672 223.543 162.328 223.557 160.965C223.557 155.247 218.342 150.612 211.91 150.612C210.5 150.618 209.102 150.856 207.77 151.316C207.531 150.298 207.088 149.339 206.469 148.497C205.849 147.655 205.065 146.947 204.164 146.416C203.263 145.886 202.264 145.543 201.227 145.409C200.19 145.275 199.136 145.353 198.13 145.637C197.124 145.922 196.186 146.407 195.372 147.064C194.559 147.721 193.887 148.536 193.397 149.46C192.907 150.384 192.61 151.397 192.523 152.439C192.435 153.481 192.56 154.53 192.889 155.523C191.26 156.655 189.913 158.147 188.953 159.884C187.994 161.621 187.448 163.556 187.357 165.538C187.248 165.635 187.122 165.714 187.019 165.817C187.212 165.078 187.313 164.318 187.32 163.554C187.32 157.835 182.105 153.2 175.672 153.2C174.263 153.206 172.864 153.444 171.532 153.905C171.294 152.887 170.851 151.928 170.231 151.086C169.611 150.243 168.827 149.536 167.926 149.005C167.025 148.474 166.026 148.131 164.989 147.997C163.952 147.863 162.898 147.941 161.892 148.225C160.886 148.51 159.948 148.995 159.134 149.652C158.321 150.309 157.649 151.124 157.159 152.048C156.669 152.972 156.372 153.986 156.285 155.028C156.198 156.07 156.322 157.119 156.652 158.111C154.934 159.299 153.529 160.885 152.559 162.735C151.589 164.584 151.082 166.642 151.082 168.731C151.082 170.819 151.589 172.877 152.559 174.726C153.529 176.576 154.934 178.162 156.652 179.35C156.128 180.854 156.128 182.491 156.652 183.995C155.355 184.9 154.233 186.033 153.34 187.339C152.861 185.6 151.788 184.085 150.308 183.055C148.827 182.025 147.033 181.546 145.236 181.701C143.44 181.857 141.754 182.636 140.472 183.905C139.191 185.173 138.394 186.851 138.22 188.646C137.182 188.038 136.061 187.585 134.892 187.301C136.989 185.917 138.64 183.956 139.646 181.654C145.979 181.551 151.082 176.973 151.082 171.319C151.082 165.601 145.867 160.965 139.434 160.965C138.025 160.972 136.626 161.21 135.295 161.67C135.056 160.652 134.613 159.693 133.993 158.851C133.373 158.009 132.589 157.301 131.688 156.77C130.787 156.239 129.788 155.897 128.751 155.763C127.714 155.629 126.661 155.706 125.654 155.991C124.648 156.275 123.71 156.761 122.897 157.418C122.083 158.075 121.411 158.89 120.922 159.814C120.432 160.737 120.134 161.751 120.047 162.793C119.96 163.835 120.085 164.884 120.414 165.876C120.248 165.992 120.098 166.128 119.938 166.251C119.534 166.213 119.142 166.142 118.727 166.142C117.318 166.148 115.919 166.386 114.587 166.847C114.538 166.652 114.458 166.47 114.395 166.281C114.645 165.129 114.625 163.934 114.336 162.791C114.047 161.648 113.497 160.587 112.729 159.692C111.961 158.797 110.996 158.093 109.91 157.634C108.823 157.175 107.645 156.974 106.468 157.047C105.794 155.17 104.695 153.475 103.257 152.093C101.819 150.711 100.081 149.681 98.1782 149.083C96.2758 148.484 94.2607 148.334 92.2906 148.644C90.3205 148.954 88.4489 149.715 86.8219 150.869C85.1949 152.022 83.8568 153.536 82.9122 155.293C81.9676 157.049 81.4421 159 81.3768 160.993C81.3115 162.987 81.7081 164.968 82.5357 166.782C83.3634 168.597 84.5995 170.195 86.1475 171.453C85.2569 171.555 84.3789 171.746 83.5265 172.024C83.2205 170.762 82.6001 169.598 81.723 168.64C80.846 167.682 79.7408 166.962 78.5106 166.547C77.2803 166.131 75.9648 166.034 74.6867 166.263C73.4086 166.493 72.2094 167.043 71.2009 167.86C70.0473 166.49 68.6041 165.393 66.9753 164.649C65.3464 163.904 63.5726 163.53 61.7817 163.554C60.3726 163.56 58.9741 163.798 57.6424 164.258C57.4034 163.24 56.9607 162.281 56.3409 161.439C55.721 160.597 54.937 159.889 54.0361 159.359C53.1351 158.828 52.136 158.485 51.0989 158.351C50.0618 158.217 49.0084 158.295 48.0022 158.579C46.9959 158.864 46.0577 159.349 45.2443 160.006C44.4308 160.663 43.7589 161.478 43.2692 162.402C42.7794 163.326 42.482 164.339 42.3947 165.381C42.3075 166.423 42.4323 167.472 42.7617 168.465C41.0438 169.653 39.6395 171.239 38.6694 173.089C37.6993 174.938 37.1923 176.996 37.1918 179.084C37.1918 179.124 37.2034 179.161 37.2037 179.201C35.3682 178.923 33.4921 179.125 31.7583 179.789C31.5193 178.771 31.0766 177.812 30.4567 176.97C29.8369 176.128 29.0529 175.42 28.1519 174.889C27.251 174.358 26.2518 174.016 25.2148 173.882C24.1778 173.748 23.1243 173.825 22.1181 174.11C21.1119 174.394 20.1737 174.88 19.3602 175.537C18.5468 176.194 17.8749 177.009 17.3851 177.932C16.8954 178.856 16.5979 179.87 16.5107 180.912C16.4235 181.954 16.5483 183.003 16.8776 183.995C14.3813 185.685 12.5563 188.197 11.72 191.093C10.8837 193.989 11.089 197.087 12.3001 199.847C13.5113 202.608 15.6518 204.856 18.3492 206.202C21.0467 207.548 24.1305 207.905 27.0644 207.213C27.5316 209.913 28.847 212.395 30.8197 214.297C32.7924 216.2 35.3199 217.424 38.0356 217.793C40.7512 218.162 43.5138 217.656 45.9226 216.349C48.3313 215.042 50.261 213.001 51.4317 210.523C52.4919 212.766 54.1766 214.656 56.2837 215.966C58.3908 217.276 60.831 217.95 63.3118 217.908C65.7925 217.867 68.2085 217.11 70.2702 215.73C72.3319 214.349 73.9518 212.404 74.9356 210.126C76.4608 210.105 77.97 209.813 79.393 209.263C80.2485 211.715 81.8243 213.851 83.9142 215.393C86.004 216.934 88.5105 217.809 91.1056 217.902C93.7008 217.995 96.2636 217.303 98.4586 215.915C100.654 214.528 102.379 212.51 103.408 210.126C105.295 210.089 107.15 209.63 108.837 208.783C110.018 210.87 111.759 212.587 113.862 213.739C115.966 214.891 118.35 215.433 120.745 215.303C123.14 215.174 125.451 214.378 127.419 213.006C129.386 211.634 130.931 209.74 131.881 207.538C132.575 207.521 133.267 207.448 133.95 207.321C134.919 209.67 136.558 211.681 138.663 213.104C140.768 214.527 143.245 215.298 145.786 215.321C148.326 215.344 150.817 214.619 152.948 213.234C155.078 211.85 156.754 209.869 157.765 207.538C158.781 207.509 159.791 207.36 160.772 207.094C163.374 207.819 166.139 207.691 168.662 206.727C171.185 205.764 173.332 204.016 174.788 201.742C173.974 204.894 174.379 208.237 175.921 211.103C177.464 213.97 180.03 216.15 183.108 217.208C186.187 218.266 189.551 218.125 192.53 216.812C195.508 215.499 197.883 213.112 199.179 210.126C201.066 210.089 202.921 209.63 204.608 208.783C205.789 210.87 207.53 212.587 209.634 213.739C211.737 214.891 214.121 215.433 216.516 215.303C218.911 215.174 221.222 214.378 223.19 213.006C225.157 211.634 226.703 209.74 227.652 207.538C229.539 207.5 231.394 207.041 233.081 206.194C233.991 207.816 235.244 209.221 236.752 210.309C238.26 211.398 239.986 212.146 241.812 212.499C243.638 212.853 245.519 212.805 247.325 212.359C249.13 211.912 250.817 211.078 252.267 209.913C252.717 212.389 253.881 214.68 255.617 216.501C257.353 218.323 259.585 219.597 262.036 220.166C264.488 220.734 267.052 220.572 269.412 219.7C271.773 218.828 273.827 217.284 275.32 215.259C276.873 216.449 278.678 217.269 280.597 217.657C282.515 218.044 284.497 217.987 286.39 217.492C288.284 216.997 290.039 216.076 291.523 214.8C293.006 213.523 294.179 211.925 294.951 210.126C301.283 210.023 306.387 205.445 306.387 199.791C306.386 194.073 301.172 189.438 294.739 189.438ZM63.3913 184.096C63.3777 184.158 63.3682 184.222 63.3554 184.285C63.2609 184.282 63.1714 184.261 63.0759 184.261C62.6891 184.271 62.3036 184.31 61.9227 184.377C61.9437 184.331 61.9732 184.289 61.9936 184.242C62.4618 184.219 62.9284 184.17 63.3913 184.096ZM171.532 179.789C171.495 179.638 171.43 179.5 171.384 179.353C173.36 177.982 174.918 176.091 175.884 173.888C177.586 173.879 179.267 173.512 180.817 172.81C182.368 172.108 183.753 171.087 184.883 169.813C184.784 170.309 184.733 170.813 184.731 171.319C184.742 172.109 184.875 172.892 185.124 173.642C182.902 175.191 181.219 177.397 180.313 179.949C177.498 178.854 174.385 178.797 171.532 179.789V179.789ZM249.056 180.754C249.051 180.595 249.071 180.432 249.06 180.274C249.39 180.273 249.72 180.251 250.047 180.207C250.549 181.882 251.388 183.437 252.513 184.775C252.268 184.844 252.011 184.885 251.773 184.966C251.355 183.301 250.4 181.821 249.056 180.754Z" fill="#F9A825"/>
<path id="Vector_3" d="M27.0278 204.968C23.3563 204.968 19.7232 205.716 16.3503 207.166C12.9773 208.616 9.93529 210.739 7.40974 213.404C4.8842 216.068 2.92812 219.22 1.66087 222.666C0.393626 226.112 -0.158215 229.78 0.0390305 233.446L17.5664 474.466C17.936 481.374 20.9407 487.877 25.9616 492.636C30.9825 497.395 37.6372 500.048 44.5551 500.047H270.551C277.468 500.048 284.123 497.395 289.144 492.636C294.165 487.877 297.17 481.374 297.539 474.466L315.067 233.446C315.264 229.78 314.712 226.112 313.445 222.666C312.178 219.22 310.221 216.068 307.696 213.404C305.17 210.739 302.128 208.616 298.755 207.166C295.382 205.716 291.749 204.968 288.078 204.968H27.0278Z" fill="#3F3D56"/>
<path id="Vector_4" d="M55.3107 204.968H39.7803V500.047H55.3107V204.968Z" fill="#1436A8"/>
<path id="Vector_5" d="M99.3137 204.968H83.7832V500.047H99.3137V204.968Z" fill="#1436A8"/>
<path id="Vector_6" d="M143.317 204.968H127.786V500.047H143.317V204.968Z" fill="#1436A8"/>
<path id="Vector_7" d="M187.32 204.968H171.789V500.047H187.32V204.968Z" fill="#1436A8"/>
<path id="Vector_8" d="M231.323 204.968H215.792V500.047H231.323V204.968Z" fill="#1436A8"/>
<path id="Vector_9" d="M275.326 204.968H259.795V500.047H275.326V204.968Z" fill="#1436A8"/>
</g>
<g id="cup">
<path id="2572ddba-42e8-4159-9036-35cbff74dfb7" d="M528.701 83.9969L521.931 67.507L431.661 104.567C429.617 105.407 427.869 106.836 426.639 108.672C425.409 110.507 424.752 112.667 424.751 114.877V212.407H442.581V119.377L528.701 83.9969Z" fill="#3F3D56"/>
<g id="Group">
<path id="Vector_10" d="M517.101 49.5869H497.661V111.157H517.101V49.5869Z" fill="#1436A8"/>
<path id="Vector_11" d="M486.321 62.547H466.881V124.117H486.321V62.547Z" fill="#1436A8"/>
<path id="Vector_12" d="M456.341 115.207L442.571 119.257L436.901 53.6373H456.341V115.207Z" fill="#1436A8"/>
<path id="Vector_13" d="M467.681 122.497H406.111V141.937H467.681V122.497Z" fill="#1436A8"/>
<path id="Vector_14" d="M467.691 149.237H406.121V168.677H467.691V149.237Z" fill="#1436A8"/>
<path id="Vector_15" d="M467.681 175.977H406.111V195.417H467.681V175.977Z" fill="#1436A8"/>
</g>
<path id="Vector_16" d="M497.661 500.047H378.571L349.401 208.377H523.591L497.661 500.047Z" fill="#3F3D56"/>
<path id="Vector_17" d="M536.551 203.517H337.251V222.957H536.551V203.517Z" fill="#3F3D56"/>
</g>
<g id="play-button">
<g id="Group 1">
<path id="Vector_18" d="M739.311 134.14C776.303 134.14 806.291 104.153 806.291 67.1605C806.291 30.1685 776.303 0.180511 739.311 0.180511C702.319 0.180511 672.331 30.1685 672.331 67.1605C672.331 104.153 702.319 134.14 739.311 134.14Z" fill="#3AD29F"/>
<path id="Vector_19" d="M783.661 67.1603L716.621 100.1V67.1603V34.2203L783.661 67.1603Z" fill="url(#paint0_linear)"/>
<path id="Vector_20" d="M779.631 67.1603L720.641 96.1503V67.1603V38.1703L779.631 67.1603Z" fill="white"/>
<path id="Vector_21" opacity="0.2" d="M677.811 74.8505C677.822 61.066 682.084 47.6203 690.017 36.3469C697.949 25.0736 709.166 16.5214 722.137 11.8564C735.108 7.19153 749.203 6.64102 762.498 10.28C775.794 13.9189 787.643 21.5702 796.431 32.1905C791.644 24.3179 785.285 17.5172 777.751 12.2135C770.217 6.90979 761.67 3.21702 752.644 1.366C743.618 -0.485033 734.307 -0.454534 725.294 1.45558C716.28 3.36569 707.757 7.11437 700.258 12.4673C692.759 17.8203 686.444 24.6625 681.709 32.5663C676.974 40.4701 673.919 49.2656 672.737 58.4032C671.555 67.5407 672.27 76.824 674.838 85.6726C677.406 94.5213 681.771 102.745 687.661 109.831C681.202 99.3078 677.791 87.1977 677.811 74.8505Z" fill="white"/>
</g>
</g>
<g id="glasses">
<path id="Vector_22" d="M727.547 414.799C726.766 414.8 726.017 415.11 725.465 415.662C724.913 416.214 724.602 416.962 724.6 417.743V497.103C724.602 497.884 724.913 498.632 725.465 499.184C726.017 499.736 726.766 500.046 727.547 500.047H864.16C864.941 500.046 865.69 499.736 866.242 499.184C866.795 498.632 867.106 497.884 867.107 497.103V417.743C867.106 416.962 866.795 416.214 866.242 415.662C865.69 415.11 864.941 414.8 864.16 414.799H727.547Z" fill="#3F3D56"/>
<path id="Vector_23" d="M742.814 421.798C741.359 421.799 739.964 422.378 738.935 423.407C737.906 424.436 737.327 425.831 737.326 427.286V487.56C737.327 489.015 737.906 490.41 738.935 491.439C739.964 492.468 741.359 493.047 742.814 493.048H848.894C850.349 493.047 851.744 492.468 852.772 491.439C853.801 490.41 854.38 489.015 854.382 487.56V427.286C854.38 425.831 853.801 424.436 852.772 423.407C851.744 422.378 850.349 421.799 848.894 421.798L742.814 421.798Z" fill="#FF6584"/>
<path id="Vector_24" d="M729.082 440.94H657.921V457.423H729.082V440.94Z" fill="#3F3D56"/>
<path id="Vector_25" d="M534.092 414.799C533.312 414.8 532.564 415.111 532.012 415.663C531.46 416.214 531.149 416.962 531.148 417.743V497.103C531.149 497.883 531.46 498.631 532.012 499.183C532.564 499.735 533.312 500.046 534.092 500.047H670.708C671.489 500.046 672.237 499.735 672.789 499.183C673.34 498.631 673.651 497.883 673.652 497.103V417.743C673.651 416.962 673.34 416.214 672.789 415.663C672.237 415.111 671.489 414.8 670.708 414.799H534.092Z" fill="#3F3D56"/>
<path id="Vector_26" d="M549.362 421.798C547.906 421.799 546.511 422.377 545.481 423.406C544.452 424.435 543.873 425.83 543.871 427.286V487.56C543.873 489.016 544.452 490.411 545.481 491.44C546.511 492.469 547.906 493.047 549.362 493.048H655.439C656.894 493.047 658.29 492.469 659.319 491.44C660.349 490.411 660.928 489.016 660.93 487.56V427.286C660.928 425.83 660.349 424.435 659.319 423.406C658.29 422.377 656.894 421.799 655.439 421.798L549.362 421.798Z" fill="#1436A8"/>
</g>
<defs>
<linearGradient id="paint0_linear" x1="750.141" y1="100.101" x2="750.141" y2="34.2205" gradientUnits="userSpaceOnUse">
<stop stop-opacity="0.12"/>
<stop offset="0.55" stop-opacity="0.09"/>
<stop offset="1" stop-opacity="0.02"/>
</linearGradient>
</defs>
</svg>
